<svg width="44" height="44" viewBox="0 0 44 44" fill="none" xmlns="http://www.w3.org/2000/svg">
<path d="M22 0.125C9.91992 0.125 0.125 9.91992 0.125 22C0.125 34.0801 9.91992 43.875 22 43.875C34.0801 43.875 43.875 34.0801 43.875 22C43.875 9.91992 34.0801 0.125 22 0.125ZM29.0361 22.3369L18.3721 30.0957C18.3136 30.1377 18.2447 30.1628 18.1729 30.1682C18.1011 30.1736 18.0292 30.1591 17.9651 30.1263C17.9011 30.0935 17.8472 30.0437 17.8096 29.9823C17.772 29.9209 17.7521 29.8503 17.752 29.7783V14.2705C17.7517 14.1984 17.7715 14.1276 17.809 14.066C17.8465 14.0044 17.9004 13.9544 17.9646 13.9215C18.0288 13.8886 18.1009 13.8742 18.1728 13.8798C18.2447 13.8854 18.3137 13.9107 18.3721 13.9531L29.0361 21.707C29.0865 21.7427 29.1276 21.7899 29.156 21.8447C29.1843 21.8995 29.1991 21.9603 29.1991 22.022C29.1991 22.0837 29.1843 22.1445 29.156 22.1993C29.1276 22.2541 29.0865 22.3013 29.0361 22.3369V22.3369Z" fill="#02A7CB"/>
</svg>
